<?xml version="1.0" encoding="UTF-8"?>
<svg xmlns="http://www.w3.org/2000/svg" xmlns:xlink="http://www.w3.org/1999/xlink" viewBox="0 0 96 96" width="96px" height="96px">
<g id="surface3450435">
<path style=" stroke:none;fill-rule:nonzero;fill:rgb(100%,0%,0%);fill-opacity:1;" d="M 84.398438 44.199219 L 51.800781 11.601562 C 50.800781 10.601562 49.398438 10 48 10 C 46.601562 10 45.199219 10.601562 44.199219 11.601562 L 37.199219 18.601562 L 45.398438 26.800781 C 46.199219 26.398438 47 26.199219 48 26.199219 C 51.398438 26.199219 54 28.800781 54 32.199219 C 54 33.199219 53.800781 34 53.398438 34.800781 L 61.398438 42.800781 C 62.199219 42.398438 63 42.199219 64 42.199219 C 67.398438 42.199219 70 44.800781 70 48.199219 C 70 51.601562 67.398438 54.199219 64 54.199219 C 60.601562 54.199219 58 51.601562 58 48.199219 C 58 47.199219 58.199219 46.398438 58.601562 45.601562 L 50.601562 37.601562 C 50.398438 37.601562 50.199219 37.800781 50 37.800781 L 50 58.601562 C 52.398438 59.398438 54 61.601562 54 64.199219 C 54 67.601562 51.398438 70.199219 48 70.199219 C 44.601562 70.199219 42 67.601562 42 64.199219 C 42 61.601562 43.601562 59.398438 46 58.601562 L 46 37.601562 C 43.601562 36.800781 42 34.601562 42 32 C 42 31 42.199219 30.199219 42.601562 29.398438 L 34.398438 21.199219 L 11.601562 44.199219 C 10.601562 45.199219 10 46.601562 10 48 C 10 49.398438 10.601562 50.800781 11.601562 51.800781 L 44.199219 84.398438 C 45.199219 85.398438 46.601562 86 48 86 C 49.398438 86 50.800781 85.398438 51.800781 84.398438 L 84.398438 51.800781 C 85.398438 50.800781 86 49.398438 86 48 C 86 46.601562 85.398438 45.199219 84.398438 44.199219 Z M 84.398438 44.199219 "/>
</g>
</svg>
